# xmcd
# 
# Track frame offsets:
#     150
#     21726
#     43630
#     60844
#     80632
#     98592
#     118985
#     135872
#     156582
#     172252
#     194049
#     216901
#     234789
#     254524
#     275338
#     296822
# 
# Disc length: 4219
# 
# Revision: 0
# Processed by: cddbd v1.5.2PL0 Copyright (c) Steve Scherf et al.
# Submitted via: BonkEnc v1.0.8
# 
DISCID=f3107910
DTITLE=Deák Bill Gyula - A Király meséi
DYEAR=2009
DGENRE=Blues
TTITLE0=Forró hó
TTITLE1=Nagy eső után
TTITLE2=Kőbányáról álmodtam
TTITLE3=Itthon maradtam
TTITLE4=Hol az ég?
TTITLE5=Kilakoltatás
TTITLE6=Ébredj
TTITLE7=Lassú szőrös blues
TTITLE8=Csonka boogie
TTITLE9=Egyedül az arénában
TTITLE10=Szabadon élj
TTITLE11=A király meséje
TTITLE12=A végtelen felé
TTITLE13=Hosszú az út
TTITLE14=Éjféli piac
TTITLE15=Az legyél, aki vagy
EXTD=
EXTT0=
EXTT1=
EXTT2=
EXTT3=
EXTT4=
EXTT5=
EXTT6=
EXTT7=
EXTT8=
EXTT9=
EXTT10=
EXTT11=
EXTT12=
EXTT13=
EXTT14=
EXTT15=
PLAYORDER=
